<mxfile host="app.diagrams.net" agent="Mozilla/5.0 (Windows NT 10.0; Win64; x64) AppleWebKit/537.36 (KHTML, like Gecko) Chrome/140.0.0.0 Safari/537.36" version="28.2.5">
  <diagram name="Page-1" id="BeSZg_94FOg3kWfuvMJG">
    <mxGraphModel grid="1" page="1" gridSize="10" guides="1" tooltips="1" connect="1" arrows="1" fold="1" pageScale="1" pageWidth="850" pageHeight="1100" math="0" shadow="0">
      <root>
        <mxCell id="0" />
        <mxCell id="1" parent="0" />
        <mxCell id="Ferj_qrVu-nsUYAZD11w-332" value="STUDENT" style="html=1;dashed=0;whiteSpace=wrap;" vertex="1" parent="1">
          <mxGeometry x="435" y="610" width="120" height="60" as="geometry" />
        </mxCell>
        <mxCell id="Ferj_qrVu-nsUYAZD11w-333" value="ADMIN" style="html=1;dashed=0;whiteSpace=wrap;" vertex="1" parent="1">
          <mxGeometry x="440" y="805" width="110" height="65" as="geometry" />
        </mxCell>
        <mxCell id="Ferj_qrVu-nsUYAZD11w-334" value="FACULTY" style="html=1;dashed=0;whiteSpace=wrap;" vertex="1" parent="1">
          <mxGeometry x="420" y="1050" width="120" height="60" as="geometry" />
        </mxCell>
        <mxCell id="Ferj_qrVu-nsUYAZD11w-335" value="" style="endArrow=classic;html=1;rounded=0;exitX=0.75;exitY=1;exitDx=0;exitDy=0;entryX=0;entryY=0;entryDx=0;entryDy=0;" edge="1" parent="1" source="Ferj_qrVu-nsUYAZD11w-332" target="Ferj_qrVu-nsUYAZD11w-337">
          <mxGeometry width="50" height="50" relative="1" as="geometry">
            <mxPoint x="655" y="754" as="sourcePoint" />
            <mxPoint x="865" y="754" as="targetPoint" />
          </mxGeometry>
        </mxCell>
        <mxCell id="Ferj_qrVu-nsUYAZD11w-336" value="" style="endArrow=classic;html=1;rounded=0;entryX=0.446;entryY=1.028;entryDx=0;entryDy=0;entryPerimeter=0;" edge="1" parent="1" target="Ferj_qrVu-nsUYAZD11w-332">
          <mxGeometry width="50" height="50" relative="1" as="geometry">
            <mxPoint x="857.5" y="790" as="sourcePoint" />
            <mxPoint x="600" y="680" as="targetPoint" />
          </mxGeometry>
        </mxCell>
        <mxCell id="Ferj_qrVu-nsUYAZD11w-337" value="LOGIN" style="shape=ellipse;html=1;dashed=0;whiteSpace=wrap;aspect=fixed;perimeter=ellipsePerimeter;" vertex="1" parent="1">
          <mxGeometry x="845" y="760" width="90" height="90" as="geometry" />
        </mxCell>
        <mxCell id="Ferj_qrVu-nsUYAZD11w-338" value="" style="endArrow=classic;html=1;rounded=0;" edge="1" parent="1">
          <mxGeometry width="50" height="50" relative="1" as="geometry">
            <mxPoint x="931.81" y="790" as="sourcePoint" />
            <mxPoint x="1120" y="790" as="targetPoint" />
          </mxGeometry>
        </mxCell>
        <mxCell id="Ferj_qrVu-nsUYAZD11w-339" value="" style="endArrow=classic;html=1;rounded=0;" edge="1" parent="1">
          <mxGeometry width="50" height="50" relative="1" as="geometry">
            <mxPoint x="1135" y="819.9999999999999" as="sourcePoint" />
            <mxPoint x="935" y="819.9999999999999" as="targetPoint" />
          </mxGeometry>
        </mxCell>
        <mxCell id="Ferj_qrVu-nsUYAZD11w-340" value="REG" style="html=1;dashed=0;whiteSpace=wrap;shape=partialRectangle;right=0;left=0;" vertex="1" parent="1">
          <mxGeometry x="1130" y="610" width="150" height="60" as="geometry" />
        </mxCell>
        <mxCell id="Ferj_qrVu-nsUYAZD11w-341" value="REQUEST" style="text;html=1;align=center;verticalAlign=middle;whiteSpace=wrap;rounded=0;rotation=20;" vertex="1" parent="1">
          <mxGeometry x="620" y="680" width="60" height="30" as="geometry" />
        </mxCell>
        <mxCell id="Ferj_qrVu-nsUYAZD11w-342" value="CHECK&lt;span style=&quot;color: rgba(0, 0, 0, 0); font-family: monospace; font-size: 0px; text-align: start; text-wrap-mode: nowrap;&quot;&gt;%3CmxGraphModel%3E%3Croot%3E%3CmxCell%20id%3D%220%22%2F%3E%3CmxCell%20id%3D%221%22%20parent%3D%220%22%2F%3E%3CmxCell%20id%3D%222%22%20value%3D%22REQUEST%22%20style%3D%22text%3Bhtml%3D1%3Balign%3Dcenter%3BverticalAlign%3Dmiddle%3BwhiteSpace%3Dwrap%3Brounded%3D0%3B%22%20vertex%3D%221%22%20parent%3D%221%22%3E%3CmxGeometry%20x%3D%22320%22%20y%3D%22160%22%20width%3D%2260%22%20height%3D%2230%22%20as%3D%22geometry%22%2F%3E%3C%2FmxCell%3E%3C%2Froot%3E%3C%2FmxGraphModel%3E&lt;/span&gt;" style="text;html=1;align=center;verticalAlign=middle;whiteSpace=wrap;rounded=0;" vertex="1" parent="1">
          <mxGeometry x="1005" y="760" width="60" height="30" as="geometry" />
        </mxCell>
        <mxCell id="Ferj_qrVu-nsUYAZD11w-343" value="RESPONSE" style="text;html=1;align=center;verticalAlign=middle;whiteSpace=wrap;rounded=0;" vertex="1" parent="1">
          <mxGeometry x="1005" y="790" width="60" height="30" as="geometry" />
        </mxCell>
        <mxCell id="Ferj_qrVu-nsUYAZD11w-344" value="RESPONSE" style="text;html=1;align=center;verticalAlign=middle;whiteSpace=wrap;rounded=0;rotation=15;" vertex="1" parent="1">
          <mxGeometry x="740" y="760" width="70" height="30" as="geometry" />
        </mxCell>
        <mxCell id="Ferj_qrVu-nsUYAZD11w-349" value="STUDENT&lt;div&gt;MANAGEMENT&lt;/div&gt;" style="shape=ellipse;html=1;dashed=0;whiteSpace=wrap;aspect=fixed;perimeter=ellipsePerimeter;" vertex="1" parent="1">
          <mxGeometry x="850" y="940" width="110" height="110" as="geometry" />
        </mxCell>
        <mxCell id="Ferj_qrVu-nsUYAZD11w-350" value="FACULTY&lt;div&gt;MANAGEMENT&lt;/div&gt;" style="shape=ellipse;html=1;dashed=0;whiteSpace=wrap;aspect=fixed;perimeter=ellipsePerimeter;" vertex="1" parent="1">
          <mxGeometry x="860" y="1610" width="100" height="100" as="geometry" />
        </mxCell>
        <mxCell id="Ferj_qrVu-nsUYAZD11w-351" value="ROOMS&lt;div&gt;MANAGEMENT&lt;/div&gt;" style="shape=ellipse;html=1;dashed=0;whiteSpace=wrap;aspect=fixed;perimeter=ellipsePerimeter;" vertex="1" parent="1">
          <mxGeometry x="850" y="1120" width="110" height="110" as="geometry" />
        </mxCell>
        <mxCell id="Ferj_qrVu-nsUYAZD11w-352" value="EXAMS&lt;br&gt;&lt;div&gt;MANAGEMENT&lt;/div&gt;" style="shape=ellipse;html=1;dashed=0;whiteSpace=wrap;aspect=fixed;perimeter=ellipsePerimeter;" vertex="1" parent="1">
          <mxGeometry x="860" y="1300" width="100" height="100" as="geometry" />
        </mxCell>
        <mxCell id="Ferj_qrVu-nsUYAZD11w-356" value="" style="endArrow=classic;html=1;rounded=0;exitX=0;exitY=0.75;exitDx=0;exitDy=0;" edge="1" parent="1" source="Ferj_qrVu-nsUYAZD11w-360">
          <mxGeometry width="50" height="50" relative="1" as="geometry">
            <mxPoint x="1150" y="989.38" as="sourcePoint" />
            <mxPoint x="960" y="990" as="targetPoint" />
          </mxGeometry>
        </mxCell>
        <mxCell id="Ferj_qrVu-nsUYAZD11w-358" value="" style="endArrow=classic;html=1;rounded=0;" edge="1" parent="1">
          <mxGeometry width="50" height="50" relative="1" as="geometry">
            <mxPoint x="1120" y="1370" as="sourcePoint" />
            <mxPoint x="960" y="1370" as="targetPoint" />
          </mxGeometry>
        </mxCell>
        <mxCell id="Ferj_qrVu-nsUYAZD11w-359" value="" style="endArrow=classic;html=1;rounded=0;" edge="1" parent="1">
          <mxGeometry width="50" height="50" relative="1" as="geometry">
            <mxPoint x="1165" y="1534.13" as="sourcePoint" />
            <mxPoint x="965" y="1534.13" as="targetPoint" />
          </mxGeometry>
        </mxCell>
        <mxCell id="Ferj_qrVu-nsUYAZD11w-360" value="STUDENTS" style="html=1;dashed=0;whiteSpace=wrap;shape=partialRectangle;right=0;left=0;" vertex="1" parent="1">
          <mxGeometry x="1130" y="940" width="150" height="60" as="geometry" />
        </mxCell>
        <mxCell id="Ferj_qrVu-nsUYAZD11w-362" value="ROOMS&lt;span style=&quot;color: rgba(0, 0, 0, 0); font-family: monospace; font-size: 0px; text-align: start; text-wrap-mode: nowrap;&quot;&gt;%3CmxGraphModel%3E%3Croot%3E%3CmxCell%20id%3D%220%22%2F%3E%3CmxCell%20id%3D%221%22%20parent%3D%220%22%2F%3E%3CmxCell%20id%3D%222%22%20value%3D%22SEATING%22%20style%3D%22html%3D1%3Bdashed%3D0%3BwhiteSpace%3Dwrap%3Bshape%3DpartialRectangle%3Bright%3D0%3Bleft%3D0%3B%22%20vertex%3D%221%22%20parent%3D%221%22%3E%3CmxGeometry%20x%3D%22750%22%20y%3D%22360%22%20width%3D%22150%22%20height%3D%2260%22%20as%3D%22geometry%22%2F%3E%3C%2FmxCell%3E%3C%2Froot%3E%3C%2FmxGraphModel%3E&lt;/span&gt;" style="html=1;dashed=0;whiteSpace=wrap;shape=partialRectangle;right=0;left=0;" vertex="1" parent="1">
          <mxGeometry x="1130" y="1160" width="150" height="60" as="geometry" />
        </mxCell>
        <mxCell id="Ferj_qrVu-nsUYAZD11w-363" value="EXAMS" style="html=1;dashed=0;whiteSpace=wrap;shape=partialRectangle;right=0;left=0;" vertex="1" parent="1">
          <mxGeometry x="1130" y="1320" width="150" height="60" as="geometry" />
        </mxCell>
        <mxCell id="Ferj_qrVu-nsUYAZD11w-365" value="INVIGILATION" style="html=1;dashed=0;whiteSpace=wrap;shape=partialRectangle;right=0;left=0;" vertex="1" parent="1">
          <mxGeometry x="1125" y="1485" width="150" height="60" as="geometry" />
        </mxCell>
        <mxCell id="Ferj_qrVu-nsUYAZD11w-375" value="" style="shape=ellipse;html=1;dashed=0;whiteSpace=wrap;aspect=fixed;perimeter=ellipsePerimeter;" vertex="1" parent="1">
          <mxGeometry x="855" y="1460" width="110" height="110" as="geometry" />
        </mxCell>
        <mxCell id="Ferj_qrVu-nsUYAZD11w-376" value="" style="endArrow=classic;html=1;rounded=0;exitX=0.7;exitY=0.038;exitDx=0;exitDy=0;exitPerimeter=0;entryX=0;entryY=0.25;entryDx=0;entryDy=0;" edge="1" parent="1" source="Ferj_qrVu-nsUYAZD11w-349" target="Ferj_qrVu-nsUYAZD11w-360">
          <mxGeometry width="50" height="50" relative="1" as="geometry">
            <mxPoint x="938" y="960" as="sourcePoint" />
            <mxPoint x="1120" y="950" as="targetPoint" />
            <Array as="points">
              <mxPoint x="950" y="960" />
            </Array>
          </mxGeometry>
        </mxCell>
        <mxCell id="Ferj_qrVu-nsUYAZD11w-377" value="" style="endArrow=classic;html=1;rounded=0;" edge="1" parent="1">
          <mxGeometry width="50" height="50" relative="1" as="geometry">
            <mxPoint x="960" y="1155" as="sourcePoint" />
            <mxPoint x="1130" y="1170" as="targetPoint" />
          </mxGeometry>
        </mxCell>
        <mxCell id="Ferj_qrVu-nsUYAZD11w-378" value="" style="endArrow=classic;html=1;rounded=0;exitX=0.958;exitY=0.266;exitDx=0;exitDy=0;exitPerimeter=0;entryX=0;entryY=0.25;entryDx=0;entryDy=0;" edge="1" parent="1" target="Ferj_qrVu-nsUYAZD11w-363">
          <mxGeometry width="50" height="50" relative="1" as="geometry">
            <mxPoint x="960" y="1330" as="sourcePoint" />
            <mxPoint x="1120" y="1330" as="targetPoint" />
          </mxGeometry>
        </mxCell>
        <mxCell id="Ferj_qrVu-nsUYAZD11w-379" value="" style="endArrow=classic;html=1;rounded=0;exitX=0.957;exitY=0.325;exitDx=0;exitDy=0;exitPerimeter=0;entryX=0;entryY=0.25;entryDx=0;entryDy=0;" edge="1" parent="1" source="Ferj_qrVu-nsUYAZD11w-375" target="Ferj_qrVu-nsUYAZD11w-365">
          <mxGeometry width="50" height="50" relative="1" as="geometry">
            <mxPoint x="970" y="1495" as="sourcePoint" />
            <mxPoint x="1120" y="1490" as="targetPoint" />
          </mxGeometry>
        </mxCell>
        <mxCell id="Ferj_qrVu-nsUYAZD11w-380" value="" style="endArrow=classic;html=1;rounded=0;entryX=0;entryY=0.25;entryDx=0;entryDy=0;exitX=1;exitY=0.35;exitDx=0;exitDy=0;exitPerimeter=0;" edge="1" parent="1" source="Ferj_qrVu-nsUYAZD11w-350" target="fDPI8s2YlJQ5bcFSrIYr-31">
          <mxGeometry width="50" height="50" relative="1" as="geometry">
            <mxPoint x="970" y="1645" as="sourcePoint" />
            <mxPoint x="1065" y="1640" as="targetPoint" />
          </mxGeometry>
        </mxCell>
        <mxCell id="Ferj_qrVu-nsUYAZD11w-383" value="ADMIN MODULE" style="shape=ellipse;html=1;dashed=0;whiteSpace=wrap;aspect=fixed;perimeter=ellipsePerimeter;" vertex="1" parent="1">
          <mxGeometry x="610" y="940" width="120" height="120" as="geometry" />
        </mxCell>
        <mxCell id="Ferj_qrVu-nsUYAZD11w-386" value="" style="endArrow=classic;html=1;rounded=0;exitX=0.976;exitY=0.753;exitDx=0;exitDy=0;entryX=0;entryY=0;entryDx=0;entryDy=0;exitPerimeter=0;" edge="1" parent="1" source="Ferj_qrVu-nsUYAZD11w-383" target="Ferj_qrVu-nsUYAZD11w-351">
          <mxGeometry width="50" height="50" relative="1" as="geometry">
            <mxPoint x="830" y="1250" as="sourcePoint" />
            <mxPoint x="940" y="1305" as="targetPoint" />
          </mxGeometry>
        </mxCell>
        <mxCell id="Ferj_qrVu-nsUYAZD11w-390" value="" style="endArrow=classic;html=1;rounded=0;exitX=0.298;exitY=0.993;exitDx=0;exitDy=0;entryX=0.05;entryY=0.3;entryDx=0;entryDy=0;exitPerimeter=0;entryPerimeter=0;" edge="1" parent="1" source="Ferj_qrVu-nsUYAZD11w-383" target="Ferj_qrVu-nsUYAZD11w-352">
          <mxGeometry width="50" height="50" relative="1" as="geometry">
            <mxPoint x="850" y="1340" as="sourcePoint" />
            <mxPoint x="983" y="1453" as="targetPoint" />
          </mxGeometry>
        </mxCell>
        <mxCell id="Ferj_qrVu-nsUYAZD11w-397" value="&amp;nbsp;INVIGILATOR&amp;nbsp;&lt;div&gt;MANAGEMENT&lt;/div&gt;" style="text;whiteSpace=wrap;html=1;" vertex="1" parent="1">
          <mxGeometry x="867.5" y="1495" width="75" height="40" as="geometry" />
        </mxCell>
        <mxCell id="Ferj_qrVu-nsUYAZD11w-403" value="" style="endArrow=classic;html=1;rounded=0;exitX=1;exitY=0.25;exitDx=0;exitDy=0;" edge="1" parent="1" source="Ferj_qrVu-nsUYAZD11w-332">
          <mxGeometry width="50" height="50" relative="1" as="geometry">
            <mxPoint x="650" y="630" as="sourcePoint" />
            <mxPoint x="860" y="630" as="targetPoint" />
          </mxGeometry>
        </mxCell>
        <mxCell id="Ferj_qrVu-nsUYAZD11w-404" value="INPUT DATA" style="text;html=1;align=center;verticalAlign=middle;whiteSpace=wrap;rounded=0;" vertex="1" parent="1">
          <mxGeometry x="710" y="590" width="90" height="30" as="geometry" />
        </mxCell>
        <mxCell id="Ferj_qrVu-nsUYAZD11w-405" value="REGISTER" style="shape=ellipse;html=1;dashed=0;whiteSpace=wrap;aspect=fixed;perimeter=ellipsePerimeter;" vertex="1" parent="1">
          <mxGeometry x="860" y="590" width="90" height="90" as="geometry" />
        </mxCell>
        <mxCell id="Ferj_qrVu-nsUYAZD11w-406" value="" style="endArrow=classic;html=1;rounded=0;entryX=1;entryY=0.5;entryDx=0;entryDy=0;" edge="1" parent="1" target="Ferj_qrVu-nsUYAZD11w-332">
          <mxGeometry width="50" height="50" relative="1" as="geometry">
            <mxPoint x="860" y="650" as="sourcePoint" />
            <mxPoint x="650" y="650" as="targetPoint" />
          </mxGeometry>
        </mxCell>
        <mxCell id="Ferj_qrVu-nsUYAZD11w-407" value="" style="endArrow=classic;html=1;rounded=0;entryX=0;entryY=0.25;entryDx=0;entryDy=0;" edge="1" parent="1" target="Ferj_qrVu-nsUYAZD11w-340">
          <mxGeometry width="50" height="50" relative="1" as="geometry">
            <mxPoint x="950" y="620" as="sourcePoint" />
            <mxPoint x="1100" y="620" as="targetPoint" />
          </mxGeometry>
        </mxCell>
        <mxCell id="Ferj_qrVu-nsUYAZD11w-408" value="" style="endArrow=classic;html=1;rounded=0;exitX=0;exitY=0.5;exitDx=0;exitDy=0;" edge="1" parent="1" source="Ferj_qrVu-nsUYAZD11w-340">
          <mxGeometry width="50" height="50" relative="1" as="geometry">
            <mxPoint x="1100" y="650" as="sourcePoint" />
            <mxPoint x="950" y="650" as="targetPoint" />
          </mxGeometry>
        </mxCell>
        <mxCell id="Ferj_qrVu-nsUYAZD11w-410" value="REGISTERED" style="text;html=1;align=center;verticalAlign=middle;whiteSpace=wrap;rounded=0;" vertex="1" parent="1">
          <mxGeometry x="740" y="650" width="60" height="30" as="geometry" />
        </mxCell>
        <mxCell id="Ferj_qrVu-nsUYAZD11w-413" value="LOGIN_HISTORY" style="html=1;dashed=0;whiteSpace=wrap;shape=partialRectangle;right=0;left=0;" vertex="1" parent="1">
          <mxGeometry x="1125" y="775" width="150" height="60" as="geometry" />
        </mxCell>
        <mxCell id="Ferj_qrVu-nsUYAZD11w-414" value="" style="endArrow=classic;html=1;rounded=0;exitX=0.5;exitY=0;exitDx=0;exitDy=0;entryX=0;entryY=1;entryDx=0;entryDy=0;" edge="1" parent="1" source="Ferj_qrVu-nsUYAZD11w-337" target="Ferj_qrVu-nsUYAZD11w-340">
          <mxGeometry width="50" height="50" relative="1" as="geometry">
            <mxPoint x="931.81" y="714.0899999999999" as="sourcePoint" />
            <mxPoint x="1081.81" y="714.0899999999999" as="targetPoint" />
          </mxGeometry>
        </mxCell>
        <mxCell id="Ferj_qrVu-nsUYAZD11w-415" value="" style="endArrow=classic;html=1;rounded=0;entryX=1;entryY=0;entryDx=0;entryDy=0;exitX=0.151;exitY=1.079;exitDx=0;exitDy=0;exitPerimeter=0;" edge="1" parent="1" source="Ferj_qrVu-nsUYAZD11w-340">
          <mxGeometry width="50" height="50" relative="1" as="geometry">
            <mxPoint x="1150.87" y="670.0000000000001" as="sourcePoint" />
            <mxPoint x="919.1398051533948" y="771.8001948466052" as="targetPoint" />
          </mxGeometry>
        </mxCell>
        <mxCell id="Ferj_qrVu-nsUYAZD11w-416" value="READ DATA" style="text;html=1;align=center;verticalAlign=middle;whiteSpace=wrap;rounded=0;rotation=-24;" vertex="1" parent="1">
          <mxGeometry x="945" y="690" width="60" height="30" as="geometry" />
        </mxCell>
        <mxCell id="Ferj_qrVu-nsUYAZD11w-417" value="RECIEVED DATA" style="text;html=1;align=center;verticalAlign=middle;whiteSpace=wrap;rounded=0;rotation=-24;" vertex="1" parent="1">
          <mxGeometry x="1025" y="700" width="100" height="30" as="geometry" />
        </mxCell>
        <mxCell id="fDPI8s2YlJQ5bcFSrIYr-1" value="" style="endArrow=classic;html=1;rounded=0;exitX=1;exitY=0.5;exitDx=0;exitDy=0;entryX=0.052;entryY=0.726;entryDx=0;entryDy=0;entryPerimeter=0;" edge="1" parent="1" source="Ferj_qrVu-nsUYAZD11w-333" target="Ferj_qrVu-nsUYAZD11w-337">
          <mxGeometry width="50" height="50" relative="1" as="geometry">
            <mxPoint x="690" y="840" as="sourcePoint" />
            <mxPoint x="920" y="955" as="targetPoint" />
          </mxGeometry>
        </mxCell>
        <mxCell id="fDPI8s2YlJQ5bcFSrIYr-3" value="REQUEST" style="text;html=1;align=center;verticalAlign=middle;whiteSpace=wrap;rounded=0;rotation=12;" vertex="1" parent="1">
          <mxGeometry x="495.00108077346226" y="719.9959936115587" width="60" height="30" as="geometry" />
        </mxCell>
        <mxCell id="fDPI8s2YlJQ5bcFSrIYr-4" value="" style="endArrow=classic;html=1;rounded=0;entryX=0.993;entryY=0.874;entryDx=0;entryDy=0;exitX=0;exitY=1;exitDx=0;exitDy=0;entryPerimeter=0;" edge="1" parent="1" source="Ferj_qrVu-nsUYAZD11w-337" target="Ferj_qrVu-nsUYAZD11w-333">
          <mxGeometry width="50" height="50" relative="1" as="geometry">
            <mxPoint x="1014" y="1008" as="sourcePoint" />
            <mxPoint x="730" y="880" as="targetPoint" />
          </mxGeometry>
        </mxCell>
        <mxCell id="fDPI8s2YlJQ5bcFSrIYr-7" value="RESPONSE" style="text;html=1;align=center;verticalAlign=middle;whiteSpace=wrap;rounded=0;rotation=-5;" vertex="1" parent="1">
          <mxGeometry x="685.0000464723933" y="849.9962559664742" width="70" height="30" as="geometry" />
        </mxCell>
        <mxCell id="fDPI8s2YlJQ5bcFSrIYr-9" style="edgeStyle=none;curved=1;rounded=0;orthogonalLoop=1;jettySize=auto;html=1;exitX=0;exitY=0.5;exitDx=0;exitDy=0;fontSize=12;startSize=8;endSize=8;" edge="1" parent="1" source="Ferj_qrVu-nsUYAZD11w-340" target="Ferj_qrVu-nsUYAZD11w-340">
          <mxGeometry relative="1" as="geometry" />
        </mxCell>
        <mxCell id="fDPI8s2YlJQ5bcFSrIYr-10" value="WRITE DATA" style="text;html=1;align=center;verticalAlign=middle;whiteSpace=wrap;rounded=0;" vertex="1" parent="1">
          <mxGeometry x="990" y="600" width="90" height="30" as="geometry" />
        </mxCell>
        <mxCell id="fDPI8s2YlJQ5bcFSrIYr-11" value="RECORDS" style="text;html=1;align=center;verticalAlign=middle;whiteSpace=wrap;rounded=0;rotation=-5;" vertex="1" parent="1">
          <mxGeometry x="980" y="640" width="90" height="30" as="geometry" />
        </mxCell>
        <mxCell id="fDPI8s2YlJQ5bcFSrIYr-12" value="" style="endArrow=classic;html=1;rounded=0;exitX=1;exitY=1;exitDx=0;exitDy=0;entryX=0.349;entryY=0.018;entryDx=0;entryDy=0;entryPerimeter=0;" edge="1" parent="1" source="Ferj_qrVu-nsUYAZD11w-333" target="Ferj_qrVu-nsUYAZD11w-383">
          <mxGeometry width="50" height="50" relative="1" as="geometry">
            <mxPoint x="320" y="800" as="sourcePoint" />
            <mxPoint x="565" y="936" as="targetPoint" />
          </mxGeometry>
        </mxCell>
        <mxCell id="fDPI8s2YlJQ5bcFSrIYr-15" value="" style="endArrow=classic;html=1;rounded=0;entryX=0.75;entryY=1;entryDx=0;entryDy=0;exitX=0;exitY=0;exitDx=0;exitDy=0;" edge="1" parent="1" source="Ferj_qrVu-nsUYAZD11w-383" target="Ferj_qrVu-nsUYAZD11w-333">
          <mxGeometry width="50" height="50" relative="1" as="geometry">
            <mxPoint x="800" y="1340" as="sourcePoint" />
            <mxPoint x="400" y="1190" as="targetPoint" />
          </mxGeometry>
        </mxCell>
        <mxCell id="fDPI8s2YlJQ5bcFSrIYr-18" value="" style="endArrow=classic;html=1;rounded=0;entryX=0;entryY=0.444;entryDx=0;entryDy=0;exitX=0.129;exitY=0.033;exitDx=0;exitDy=0;exitPerimeter=0;entryPerimeter=0;" edge="1" parent="1" source="Ferj_qrVu-nsUYAZD11w-334" target="Ferj_qrVu-nsUYAZD11w-337">
          <mxGeometry width="50" height="50" relative="1" as="geometry">
            <mxPoint x="430" y="1040" as="sourcePoint" />
            <mxPoint x="730" y="780" as="targetPoint" />
            <Array as="points">
              <mxPoint x="380" y="760" />
            </Array>
          </mxGeometry>
        </mxCell>
        <mxCell id="fDPI8s2YlJQ5bcFSrIYr-19" value="" style="endArrow=classic;html=1;rounded=0;entryX=0.25;entryY=0;entryDx=0;entryDy=0;" edge="1" parent="1" target="Ferj_qrVu-nsUYAZD11w-334">
          <mxGeometry width="50" height="50" relative="1" as="geometry">
            <mxPoint x="420" y="780" as="sourcePoint" />
            <mxPoint x="390.63" y="805" as="targetPoint" />
          </mxGeometry>
        </mxCell>
        <mxCell id="fDPI8s2YlJQ5bcFSrIYr-21" value="" style="endArrow=none;html=1;rounded=0;fontSize=12;startSize=8;endSize=8;curved=1;entryX=0;entryY=0.5;entryDx=0;entryDy=0;" edge="1" parent="1" target="Ferj_qrVu-nsUYAZD11w-337">
          <mxGeometry width="50" height="50" relative="1" as="geometry">
            <mxPoint x="420" y="780" as="sourcePoint" />
            <mxPoint x="840" y="810" as="targetPoint" />
            <Array as="points">
              <mxPoint x="600" y="790" />
            </Array>
          </mxGeometry>
        </mxCell>
        <mxCell id="fDPI8s2YlJQ5bcFSrIYr-22" value="RESPONSE" style="text;html=1;align=center;verticalAlign=middle;whiteSpace=wrap;rounded=0;rotation=-96;" vertex="1" parent="1">
          <mxGeometry x="379.9996895966552" y="804.9975539729243" width="70" height="30" as="geometry" />
        </mxCell>
        <mxCell id="fDPI8s2YlJQ5bcFSrIYr-23" value="" style="endArrow=classic;html=1;rounded=0;exitX=1;exitY=0;exitDx=0;exitDy=0;" edge="1" parent="1" source="Ferj_qrVu-nsUYAZD11w-383">
          <mxGeometry width="50" height="50" relative="1" as="geometry">
            <mxPoint x="920" y="970" as="sourcePoint" />
            <mxPoint x="850" y="970" as="targetPoint" />
          </mxGeometry>
        </mxCell>
        <mxCell id="fDPI8s2YlJQ5bcFSrIYr-26" value="" style="endArrow=classic;html=1;rounded=0;entryX=1;entryY=0.5;entryDx=0;entryDy=0;exitX=0;exitY=0.5;exitDx=0;exitDy=0;" edge="1" parent="1" source="Ferj_qrVu-nsUYAZD11w-349" target="Ferj_qrVu-nsUYAZD11w-383">
          <mxGeometry width="50" height="50" relative="1" as="geometry">
            <mxPoint x="685" y="1078" as="sourcePoint" />
            <mxPoint x="580" y="990" as="targetPoint" />
          </mxGeometry>
        </mxCell>
        <mxCell id="fDPI8s2YlJQ5bcFSrIYr-27" value="" style="endArrow=classic;html=1;rounded=0;entryX=1;entryY=1;entryDx=0;entryDy=0;exitX=-0.021;exitY=0.387;exitDx=0;exitDy=0;exitPerimeter=0;" edge="1" parent="1" source="Ferj_qrVu-nsUYAZD11w-351" target="Ferj_qrVu-nsUYAZD11w-383">
          <mxGeometry width="50" height="50" relative="1" as="geometry">
            <mxPoint x="875" y="1208" as="sourcePoint" />
            <mxPoint x="770" y="1120" as="targetPoint" />
          </mxGeometry>
        </mxCell>
        <mxCell id="fDPI8s2YlJQ5bcFSrIYr-29" style="edgeStyle=none;curved=1;rounded=0;orthogonalLoop=1;jettySize=auto;html=1;exitX=1;exitY=1;exitDx=0;exitDy=0;fontSize=12;startSize=8;endSize=8;" edge="1" parent="1" source="Ferj_qrVu-nsUYAZD11w-375" target="Ferj_qrVu-nsUYAZD11w-375">
          <mxGeometry relative="1" as="geometry" />
        </mxCell>
        <mxCell id="fDPI8s2YlJQ5bcFSrIYr-30" style="edgeStyle=none;curved=1;rounded=0;orthogonalLoop=1;jettySize=auto;html=1;exitX=0.75;exitY=1;exitDx=0;exitDy=0;fontSize=12;startSize=8;endSize=8;" edge="1" parent="1" source="Ferj_qrVu-nsUYAZD11w-397" target="Ferj_qrVu-nsUYAZD11w-397">
          <mxGeometry relative="1" as="geometry" />
        </mxCell>
        <mxCell id="fDPI8s2YlJQ5bcFSrIYr-31" value="FACULTY" style="html=1;dashed=0;whiteSpace=wrap;shape=partialRectangle;right=0;left=0;" vertex="1" parent="1">
          <mxGeometry x="1125" y="1630" width="150" height="60" as="geometry" />
        </mxCell>
        <mxCell id="fDPI8s2YlJQ5bcFSrIYr-32" value="SEATING" style="html=1;dashed=0;whiteSpace=wrap;shape=partialRectangle;right=0;left=0;" vertex="1" parent="1">
          <mxGeometry x="1125" y="1780" width="150" height="60" as="geometry" />
        </mxCell>
        <mxCell id="fDPI8s2YlJQ5bcFSrIYr-35" value="" style="endArrow=classic;html=1;rounded=0;exitX=0.023;exitY=0.756;exitDx=0;exitDy=0;exitPerimeter=0;entryX=0.985;entryY=0.664;entryDx=0;entryDy=0;entryPerimeter=0;" edge="1" parent="1" source="fDPI8s2YlJQ5bcFSrIYr-31" target="Ferj_qrVu-nsUYAZD11w-350">
          <mxGeometry width="50" height="50" relative="1" as="geometry">
            <mxPoint x="1250" y="1710" as="sourcePoint" />
            <mxPoint x="1050" y="1710" as="targetPoint" />
          </mxGeometry>
        </mxCell>
        <mxCell id="fDPI8s2YlJQ5bcFSrIYr-36" value="" style="endArrow=classic;html=1;rounded=0;exitX=0;exitY=0.75;exitDx=0;exitDy=0;" edge="1" parent="1" source="Ferj_qrVu-nsUYAZD11w-362">
          <mxGeometry width="50" height="50" relative="1" as="geometry">
            <mxPoint x="1160" y="1210" as="sourcePoint" />
            <mxPoint x="960" y="1190" as="targetPoint" />
          </mxGeometry>
        </mxCell>
        <mxCell id="fDPI8s2YlJQ5bcFSrIYr-37" value="SEATING ARRANGEMENT" style="shape=ellipse;html=1;dashed=0;whiteSpace=wrap;aspect=fixed;perimeter=ellipsePerimeter;" vertex="1" parent="1">
          <mxGeometry x="867.5" y="1760" width="100" height="100" as="geometry" />
        </mxCell>
        <mxCell id="fDPI8s2YlJQ5bcFSrIYr-38" value="" style="endArrow=classic;html=1;rounded=0;entryX=0;entryY=0.25;entryDx=0;entryDy=0;exitX=1;exitY=0.35;exitDx=0;exitDy=0;exitPerimeter=0;" edge="1" parent="1">
          <mxGeometry width="50" height="50" relative="1" as="geometry">
            <mxPoint x="965" y="1790" as="sourcePoint" />
            <mxPoint x="1130" y="1790" as="targetPoint" />
          </mxGeometry>
        </mxCell>
        <mxCell id="fDPI8s2YlJQ5bcFSrIYr-39" value="" style="endArrow=classic;html=1;rounded=0;entryX=0.967;entryY=0.695;entryDx=0;entryDy=0;entryPerimeter=0;" edge="1" parent="1" target="fDPI8s2YlJQ5bcFSrIYr-37">
          <mxGeometry width="50" height="50" relative="1" as="geometry">
            <mxPoint x="1120" y="1830" as="sourcePoint" />
            <mxPoint x="970" y="1830" as="targetPoint" />
          </mxGeometry>
        </mxCell>
        <mxCell id="fDPI8s2YlJQ5bcFSrIYr-40" value="" style="endArrow=classic;html=1;rounded=0;entryX=0;entryY=0.5;entryDx=0;entryDy=0;" edge="1" parent="1" target="Ferj_qrVu-nsUYAZD11w-332">
          <mxGeometry width="50" height="50" relative="1" as="geometry">
            <mxPoint x="330" y="1080" as="sourcePoint" />
            <mxPoint x="625" y="645" as="targetPoint" />
            <Array as="points">
              <mxPoint x="310" y="650" />
            </Array>
          </mxGeometry>
        </mxCell>
        <mxCell id="fDPI8s2YlJQ5bcFSrIYr-41" value="" style="endArrow=none;html=1;rounded=0;fontSize=12;startSize=8;endSize=8;curved=1;" edge="1" parent="1">
          <mxGeometry width="50" height="50" relative="1" as="geometry">
            <mxPoint x="330" y="1080" as="sourcePoint" />
            <mxPoint x="330" y="1920" as="targetPoint" />
          </mxGeometry>
        </mxCell>
        <mxCell id="fDPI8s2YlJQ5bcFSrIYr-42" value="" style="endArrow=none;html=1;rounded=0;fontSize=12;startSize=8;endSize=8;curved=1;entryX=0.197;entryY=0.937;entryDx=0;entryDy=0;entryPerimeter=0;" edge="1" parent="1" target="fDPI8s2YlJQ5bcFSrIYr-37">
          <mxGeometry width="50" height="50" relative="1" as="geometry">
            <mxPoint x="330" y="1920" as="sourcePoint" />
            <mxPoint x="590" y="1670" as="targetPoint" />
            <Array as="points">
              <mxPoint x="620" y="1920" />
            </Array>
          </mxGeometry>
        </mxCell>
        <mxCell id="fDPI8s2YlJQ5bcFSrIYr-43" value="" style="endArrow=classic;html=1;rounded=0;entryX=0.5;entryY=1;entryDx=0;entryDy=0;" edge="1" parent="1" target="fDPI8s2YlJQ5bcFSrIYr-37">
          <mxGeometry width="50" height="50" relative="1" as="geometry">
            <mxPoint x="280" y="610" as="sourcePoint" />
            <mxPoint x="942.5" y="1860" as="targetPoint" />
            <Array as="points">
              <mxPoint x="290" y="1940" />
              <mxPoint x="570" y="1940" />
            </Array>
          </mxGeometry>
        </mxCell>
        <mxCell id="fDPI8s2YlJQ5bcFSrIYr-44" value="" style="endArrow=none;html=1;rounded=0;fontSize=12;startSize=8;endSize=8;curved=1;entryX=0;entryY=0.25;entryDx=0;entryDy=0;" edge="1" parent="1" target="Ferj_qrVu-nsUYAZD11w-332">
          <mxGeometry width="50" height="50" relative="1" as="geometry">
            <mxPoint x="280" y="610" as="sourcePoint" />
            <mxPoint x="340" y="550" as="targetPoint" />
          </mxGeometry>
        </mxCell>
        <mxCell id="fDPI8s2YlJQ5bcFSrIYr-45" value="RESPONSE" style="text;html=1;align=center;verticalAlign=middle;whiteSpace=wrap;rounded=0;rotation=-96;" vertex="1" parent="1">
          <mxGeometry x="93.57632464489194" y="811.3761932869044" width="70" height="30" as="geometry" />
        </mxCell>
      </root>
    </mxGraphModel>
  </diagram>
</mxfile>
